<svg version="1.1" xmlns="http://www.w3.org/2000/svg" xmlns:xlink="http://www.w3.org/1999/xlink" width="400" height="400" viewBox="0 0 400 400"><defs/><g><rect fill="rgb(255,255,255)" stroke="none" x="0" y="0" width="400" height="400" transform="matrix(1 0 0 1 0 0)" fill-opacity="1"/><path fill="#FFFFFF" stroke="rgb(255,0,0)" paint-order="fill stroke markers" d=" M 25 25 L 65 25 L 65 65 L 25 65 L 25 25 Z" stroke-opacity="1" stroke-linecap="round" stroke-miterlimit="10" stroke-dasharray=""/><path fill="#FFFFFF" stroke="rgb(255,0,0)" paint-order="fill stroke markers" d=" M 25 75 L 65 75 L 65 115 L 25 115 L 25 75 Z" stroke-opacity="1" stroke-linecap="round" stroke-miterlimit="10" stroke-dasharray=""/><path fill="#FFFFFF" stroke="rgb(255,0,0)" paint-order="fill stroke markers" d=" M 25 125 L 65 125 L 65 165 L 25 165 L 25 125 Z" stroke-opacity="1" stroke-linecap="round" stroke-miterlimit="10" stroke-dasharray=""/><path fill="#FFFFFF" stroke="rgb(255,0,0)" paint-order="fill stroke markers" d=" M 25 175 L 65 175 L 65 215 L 25 215 L 25 175 Z" stroke-opacity="1" stroke-linecap="round" stroke-miterlimit="10" stroke-dasharray=""/><path fill="#FFFFFF" stroke="rgb(255,0,0)" paint-order="fill stroke markers" d=" M 25 225 L 65 225 L 65 265 L 25 265 L 25 225 Z" stroke-opacity="1" stroke-linecap="round" stroke-miterlimit="10" stroke-dasharray=""/><path fill="#FFFFFF" stroke="rgb(255,0,0)" paint-order="fill stroke markers" d=" M 25 275 L 65 275 L 65 315 L 25 315 L 25 275 Z" stroke-opacity="1" stroke-linecap="round" stroke-miterlimit="10" stroke-dasharray=""/><path fill="#FFFFFF" stroke="rgb(255,0,0)" paint-order="fill stroke markers" d=" M 25 325 L 65 325 L 65 365 L 25 365 L 25 325 Z" stroke-opacity="1" stroke-linecap="round" stroke-miterlimit="10" stroke-dasharray=""/><path fill="#FFFFFF" stroke="rgb(255,0,0)" paint-order="fill stroke markers" d=" M 75 25 L 115 25 L 115 65 L 75 65 L 75 25 Z" stroke-opacity="1" stroke-linecap="round" stroke-miterlimit="10" stroke-dasharray=""/><path fill="#FFFFFF" stroke="rgb(255,0,0)" paint-order="fill stroke markers" d=" M 75 75 L 115 75 L 115 115 L 75 115 L 75 75 Z" stroke-opacity="1" stroke-linecap="round" stroke-miterlimit="10" stroke-dasharray=""/><path fill="#FFFFFF" stroke="rgb(255,0,0)" paint-order="fill stroke markers" d=" M 75 125 L 115 125 L 115 165 L 75 165 L 75 125 Z" stroke-opacity="1" stroke-linecap="round" stroke-miterlimit="10" stroke-dasharray=""/><path fill="#FFFFFF" stroke="rgb(255,0,0)" paint-order="fill stroke markers" d=" M 75 175 L 115 175 L 115 215 L 75 215 L 75 175 Z" stroke-opacity="1" stroke-linecap="round" stroke-miterlimit="10" stroke-dasharray=""/><path fill="#FFFFFF" stroke="rgb(255,0,0)" paint-order="fill stroke markers" d=" M 75 225 L 115 225 L 115 265 L 75 265 L 75 225 Z" stroke-opacity="1" stroke-linecap="round" stroke-miterlimit="10" stroke-dasharray=""/><path fill="#FFFFFF" stroke="rgb(255,0,0)" paint-order="fill stroke markers" d=" M 75 275 L 115 275 L 115 315 L 75 315 L 75 275 Z" stroke-opacity="1" stroke-linecap="round" stroke-miterlimit="10" stroke-dasharray=""/><path fill="#FFFFFF" stroke="rgb(255,0,0)" paint-order="fill stroke markers" d=" M 75 325 L 115 325 L 115 365 L 75 365 L 75 325 Z" stroke-opacity="1" stroke-linecap="round" stroke-miterlimit="10" stroke-dasharray=""/><path fill="#FFFFFF" stroke="rgb(255,0,0)" paint-order="fill stroke markers" d=" M 125 25 L 165 25 L 165 65 L 125 65 L 125 25 Z" stroke-opacity="1" stroke-linecap="round" stroke-miterlimit="10" stroke-dasharray=""/><path fill="#FFFFFF" stroke="rgb(255,0,0)" paint-order="fill stroke markers" d=" M 125 75 L 165 75 L 165 115 L 125 115 L 125 75 Z" stroke-opacity="1" stroke-linecap="round" stroke-miterlimit="10" stroke-dasharray=""/><path fill="#FFFFFF" stroke="rgb(255,0,0)" paint-order="fill stroke markers" d=" M 125 125 L 165 125 L 165 165 L 125 165 L 125 125 Z" stroke-opacity="1" stroke-linecap="round" stroke-miterlimit="10" stroke-dasharray=""/><path fill="#FFFFFF" stroke="rgb(255,0,0)" paint-order="fill stroke markers" d=" M 125 175 L 165 175 L 165 215 L 125 215 L 125 175 Z" stroke-opacity="1" stroke-linecap="round" stroke-miterlimit="10" stroke-dasharray=""/><path fill="#FFFFFF" stroke="rgb(255,0,0)" paint-order="fill stroke markers" d=" M 125 225 L 165 225 L 165 265 L 125 265 L 125 225 Z" stroke-opacity="1" stroke-linecap="round" stroke-miterlimit="10" stroke-dasharray=""/><path fill="#FFFFFF" stroke="rgb(255,0,0)" paint-order="fill stroke markers" d=" M 125 275 L 165 275 L 165 315 L 125 315 L 125 275 Z" stroke-opacity="1" stroke-linecap="round" stroke-miterlimit="10" stroke-dasharray=""/><path fill="#FFFFFF" stroke="rgb(255,0,0)" paint-order="fill stroke markers" d=" M 125 325 L 165 325 L 165 365 L 125 365 L 125 325 Z" stroke-opacity="1" stroke-linecap="round" stroke-miterlimit="10" stroke-dasharray=""/><path fill="#FFFFFF" stroke="rgb(255,0,0)" paint-order="fill stroke markers" d=" M 175 25 L 215 25 L 215 65 L 175 65 L 175 25 Z" stroke-opacity="1" stroke-linecap="round" stroke-miterlimit="10" stroke-dasharray=""/><path fill="#FFFFFF" stroke="rgb(255,0,0)" paint-order="fill stroke markers" d=" M 175 75 L 215 75 L 215 115 L 175 115 L 175 75 Z" stroke-opacity="1" stroke-linecap="round" stroke-miterlimit="10" stroke-dasharray=""/><path fill="#FFFFFF" stroke="rgb(255,0,0)" paint-order="fill stroke markers" d=" M 175 125 L 215 125 L 215 165 L 175 165 L 175 125 Z" stroke-opacity="1" stroke-linecap="round" stroke-miterlimit="10" stroke-dasharray=""/><path fill="#FFFFFF" stroke="rgb(255,0,0)" paint-order="fill stroke markers" d=" M 175 175 L 215 175 L 215 215 L 175 215 L 175 175 Z" stroke-opacity="1" stroke-linecap="round" stroke-miterlimit="10" stroke-dasharray=""/><path fill="#FFFFFF" stroke="rgb(255,0,0)" paint-order="fill stroke markers" d=" M 175 225 L 215 225 L 215 265 L 175 265 L 175 225 Z" stroke-opacity="1" stroke-linecap="round" stroke-miterlimit="10" stroke-dasharray=""/><path fill="#FFFFFF" stroke="rgb(255,0,0)" paint-order="fill stroke markers" d=" M 175 275 L 215 275 L 215 315 L 175 315 L 175 275 Z" stroke-opacity="1" stroke-linecap="round" stroke-miterlimit="10" stroke-dasharray=""/><path fill="#FFFFFF" stroke="rgb(255,0,0)" paint-order="fill stroke markers" d=" M 175 325 L 215 325 L 215 365 L 175 365 L 175 325 Z" stroke-opacity="1" stroke-linecap="round" stroke-miterlimit="10" stroke-dasharray=""/><path fill="#FFFFFF" stroke="rgb(255,0,0)" paint-order="fill stroke markers" d=" M 225 25 L 265 25 L 265 65 L 225 65 L 225 25 Z" stroke-opacity="1" stroke-linecap="round" stroke-miterlimit="10" stroke-dasharray=""/><path fill="#FFFFFF" stroke="rgb(255,0,0)" paint-order="fill stroke markers" d=" M 225 75 L 265 75 L 265 115 L 225 115 L 225 75 Z" stroke-opacity="1" stroke-linecap="round" stroke-miterlimit="10" stroke-dasharray=""/><path fill="#FFFFFF" stroke="rgb(255,0,0)" paint-order="fill stroke markers" d=" M 225 125 L 265 125 L 265 165 L 225 165 L 225 125 Z" stroke-opacity="1" stroke-linecap="round" stroke-miterlimit="10" stroke-dasharray=""/><path fill="#FFFFFF" stroke="rgb(255,0,0)" paint-order="fill stroke markers" d=" M 225 175 L 265 175 L 265 215 L 225 215 L 225 175 Z" stroke-opacity="1" stroke-linecap="round" stroke-miterlimit="10" stroke-dasharray=""/><path fill="#FFFFFF" stroke="rgb(255,0,0)" paint-order="fill stroke markers" d=" M 225 225 L 265 225 L 265 265 L 225 265 L 225 225 Z" stroke-opacity="1" stroke-linecap="round" stroke-miterlimit="10" stroke-dasharray=""/><path fill="#FFFFFF" stroke="rgb(255,0,0)" paint-order="fill stroke markers" d=" M 225 275 L 265 275 L 265 315 L 225 315 L 225 275 Z" stroke-opacity="1" stroke-linecap="round" stroke-miterlimit="10" stroke-dasharray=""/><path fill="#FFFFFF" stroke="rgb(255,0,0)" paint-order="fill stroke markers" d=" M 225 325 L 265 325 L 265 365 L 225 365 L 225 325 Z" stroke-opacity="1" stroke-linecap="round" stroke-miterlimit="10" stroke-dasharray=""/><path fill="#FFFFFF" stroke="rgb(255,0,0)" paint-order="fill stroke markers" d=" M 275 25 L 315 25 L 315 65 L 275 65 L 275 25 Z" stroke-opacity="1" stroke-linecap="round" stroke-miterlimit="10" stroke-dasharray=""/><path fill="#FFFFFF" stroke="rgb(255,0,0)" paint-order="fill stroke markers" d=" M 275 75 L 315 75 L 315 115 L 275 115 L 275 75 Z" stroke-opacity="1" stroke-linecap="round" stroke-miterlimit="10" stroke-dasharray=""/><path fill="#FFFFFF" stroke="rgb(255,0,0)" paint-order="fill stroke markers" d=" M 275 125 L 315 125 L 315 165 L 275 165 L 275 125 Z" stroke-opacity="1" stroke-linecap="round" stroke-miterlimit="10" stroke-dasharray=""/><path fill="#FFFFFF" stroke="rgb(255,0,0)" paint-order="fill stroke markers" d=" M 275 175 L 315 175 L 315 215 L 275 215 L 275 175 Z" stroke-opacity="1" stroke-linecap="round" stroke-miterlimit="10" stroke-dasharray=""/><path fill="#FFFFFF" stroke="rgb(255,0,0)" paint-order="fill stroke markers" d=" M 275 225 L 315 225 L 315 265 L 275 265 L 275 225 Z" stroke-opacity="1" stroke-linecap="round" stroke-miterlimit="10" stroke-dasharray=""/><path fill="#FFFFFF" stroke="rgb(255,0,0)" paint-order="fill stroke markers" d=" M 275 275 L 315 275 L 315 315 L 275 315 L 275 275 Z" stroke-opacity="1" stroke-linecap="round" stroke-miterlimit="10" stroke-dasharray=""/><path fill="#FFFFFF" stroke="rgb(255,0,0)" paint-order="fill stroke markers" d=" M 275 325 L 315 325 L 315 365 L 275 365 L 275 325 Z" stroke-opacity="1" stroke-linecap="round" stroke-miterlimit="10" stroke-dasharray=""/><path fill="#FFFFFF" stroke="rgb(255,0,0)" paint-order="fill stroke markers" d=" M 325 25 L 365 25 L 365 65 L 325 65 L 325 25 Z" stroke-opacity="1" stroke-linecap="round" stroke-miterlimit="10" stroke-dasharray=""/><path fill="#FFFFFF" stroke="rgb(255,0,0)" paint-order="fill stroke markers" d=" M 325 75 L 365 75 L 365 115 L 325 115 L 325 75 Z" stroke-opacity="1" stroke-linecap="round" stroke-miterlimit="10" stroke-dasharray=""/><path fill="#FFFFFF" stroke="rgb(255,0,0)" paint-order="fill stroke markers" d=" M 325 125 L 365 125 L 365 165 L 325 165 L 325 125 Z" stroke-opacity="1" stroke-linecap="round" stroke-miterlimit="10" stroke-dasharray=""/><path fill="#FFFFFF" stroke="rgb(255,0,0)" paint-order="fill stroke markers" d=" M 325 175 L 365 175 L 365 215 L 325 215 L 325 175 Z" stroke-opacity="1" stroke-linecap="round" stroke-miterlimit="10" stroke-dasharray=""/><path fill="#FFFFFF" stroke="rgb(255,0,0)" paint-order="fill stroke markers" d=" M 325 225 L 365 225 L 365 265 L 325 265 L 325 225 Z" stroke-opacity="1" stroke-linecap="round" stroke-miterlimit="10" stroke-dasharray=""/><path fill="#FFFFFF" stroke="rgb(255,0,0)" paint-order="fill stroke markers" d=" M 325 275 L 365 275 L 365 315 L 325 315 L 325 275 Z" stroke-opacity="1" stroke-linecap="round" stroke-miterlimit="10" stroke-dasharray=""/><path fill="#FFFFFF" stroke="rgb(255,0,0)" paint-order="fill stroke markers" d=" M 325 325 L 365 325 L 365 365 L 325 365 L 325 325 Z" stroke-opacity="1" stroke-linecap="round" stroke-miterlimit="10" stroke-dasharray=""/><path fill="#FFFFFF" stroke="rgb(0,0,0)" paint-order="fill stroke markers" d=" M 110 275 C 110 252.908610008 127.908610008 235 150 235 C 172.091389992 235 190 252.908610008 190 275 C 190 297.091389992 172.091389992 315 150 315 C 127.908610008 315 110 297.091389992 110 275" stroke-opacity="1" stroke-linecap="round" stroke-miterlimit="10" stroke-dasharray=""/><path fill="#FFFFFF" stroke="rgb(0,0,0)" paint-order="fill stroke markers" d=" M 200 240 C 200 217.908610008 217.908610008 200 240 200 C 262.091389992 200 280 217.908610008 280 240 C 280 262.091389992 262.091389992 280 240 280 C 217.908610008 280 200 262.091389992 200 240" stroke-opacity="1" stroke-linecap="round" stroke-miterlimit="10" stroke-dasharray=""/><path fill="#FFFFFF" stroke="rgb(0,0,0)" paint-order="fill stroke markers" d=" M 300 100 L 320 100 L 310 80 Z" stroke-opacity="1" stroke-linecap="round" stroke-miterlimit="10" stroke-dasharray=""/><path fill="#FFFFFF" stroke="rgb(0,0,0)" paint-order="fill stroke markers" d=" M 190 230 C 190 207.908610008 194.477152502 190 200 190 C 205.522847498 190 210 207.908610008 210 230 C 210 252.09138999200002 205.522847498 270 200 270 C 194.477152502 270 190 252.09138999200002 190 230" stroke-opacity="1" stroke-linecap="round" stroke-miterlimit="10" stroke-dasharray=""/><path fill="#FFFFFF" stroke="rgb(0,0,0)" paint-order="fill stroke markers" d=" M 174.27627248747632 218.3926573083237 C 187.26126572741546 200.52034737543104 201.40977503970157 188.66358174626575 205.87785252292474 191.9098300562505 C 210.34593000614788 195.1560783662353 203.4416056149144 212.27605242128053 190.4566123749753 230.14836235417317 C 177.47161913503615 248.0206722870658 163.32310982275004 259.8774379162311 158.85503233952687 256.6311896062463 C 154.3869548563037 253.38494129626153 161.2912792475372 236.2649672412163 174.27627248747632 218.3926573083237" stroke-opacity="1" stroke-linecap="round" stroke-miterlimit="10" stroke-dasharray=""/><path fill="#FFFFFF" stroke="rgb(0,0,0)" paint-order="fill stroke markers" d=" M 168.37813456739593 199.7599446682969 C 189.38829497330505 192.93332973140426 207.80391142872838 191.65728995477323 209.51056516295154 196.9098300562505 C 211.2172188971747 202.16237015772782 195.568634860804 211.95446005730733 174.55847445489485 218.78107499419997 C 153.54831404898573 225.60768993109258 135.1326975935624 226.8837297077236 133.42604385933925 221.63118960624632 C 131.7193901251161 216.37864950476904 147.36797416148676 206.5865596051895 168.37813456739593 199.7599446682969" stroke-opacity="1" stroke-linecap="round" stroke-miterlimit="10" stroke-dasharray=""/><path fill="#FFFFFF" stroke="rgb(0,0,0)" paint-order="fill stroke markers" d=" M 174.55847445489485 181.21892500580003 C 195.568634860804 188.04553994269267 211.2172188971747 197.83762984227218 209.51056516295154 203.0901699437495 C 207.80391142872838 208.34271004522677 189.38829497330505 207.06667026859574 168.37813456739593 200.2400553317031 C 147.36797416148676 193.4134403948105 131.7193901251161 183.62135049523096 133.42604385933925 178.36881039375368 C 135.1326975935624 173.1162702922764 153.54831404898573 174.39231006890742 174.55847445489485 181.21892500580003" stroke-opacity="1" stroke-linecap="round" stroke-miterlimit="10" stroke-dasharray=""/><path fill="#FFFFFF" stroke="rgb(0,0,0)" paint-order="fill stroke markers" d=" M 190.4566123749753 169.85163764582683 C 203.4416056149144 187.72394757871947 210.34593000614788 204.8439216337647 205.87785252292474 208.0901699437495 C 201.40977503970157 211.33641825373425 187.26126572741546 199.47965262456896 174.27627248747632 181.6073426916763 C 161.2912792475372 163.7350327587837 154.3869548563037 146.61505870373847 158.85503233952687 143.36881039375368 C 163.32310982275004 140.12256208376888 177.47161913503615 151.9793277129342 190.4566123749753 169.85163764582683" stroke-opacity="1" stroke-linecap="round" stroke-miterlimit="10" stroke-dasharray=""/><path fill="#FFFFFF" stroke="rgb(0,0,0)" paint-order="fill stroke markers" d=" M 210 170 C 210 192.091389992 205.522847498 210 200 210 C 194.477152502 210 190 192.091389992 190 170 C 190 147.90861000799998 194.477152502 130 200 130 C 205.522847498 130 210 147.90861000799998 210 170" stroke-opacity="1" stroke-linecap="round" stroke-miterlimit="10" stroke-dasharray=""/><path fill="#FFFFFF" stroke="rgb(0,0,0)" paint-order="fill stroke markers" d=" M 225.72372751252368 181.6073426916763 C 212.73873427258454 199.47965262456896 198.59022496029843 211.33641825373425 194.12214747707526 208.0901699437495 C 189.65406999385212 204.8439216337647 196.5583943850856 187.72394757871947 209.5433876250247 169.85163764582683 C 222.52838086496385 151.9793277129342 236.67689017724996 140.12256208376888 241.14496766047313 143.36881039375368 C 245.6130451436963 146.61505870373847 238.7087207524628 163.7350327587837 225.72372751252368 181.6073426916763" stroke-opacity="1" stroke-linecap="round" stroke-miterlimit="10" stroke-dasharray=""/><path fill="#FFFFFF" stroke="rgb(0,0,0)" paint-order="fill stroke markers" d=" M 231.62186543260407 200.2400553317031 C 210.61170502669495 207.06667026859574 192.19608857127162 208.34271004522677 190.48943483704846 203.0901699437495 C 188.7827811028253 197.83762984227218 204.431365139196 188.04553994269267 225.44152554510515 181.21892500580003 C 246.45168595101427 174.39231006890742 264.8673024064376 173.1162702922764 266.57395614066075 178.36881039375368 C 268.2806098748839 183.62135049523096 252.63202583851324 193.4134403948105 231.62186543260407 200.2400553317031" stroke-opacity="1" stroke-linecap="round" stroke-miterlimit="10" stroke-dasharray=""/><path fill="#FFFFFF" stroke="rgb(0,0,0)" paint-order="fill stroke markers" d=" M 225.44152554510515 218.78107499419997 C 204.431365139196 211.95446005730733 188.7827811028253 202.16237015772782 190.48943483704846 196.9098300562505 C 192.19608857127162 191.65728995477323 210.61170502669495 192.93332973140426 231.62186543260407 199.7599446682969 C 252.63202583851324 206.5865596051895 268.2806098748839 216.37864950476904 266.57395614066075 221.63118960624632 C 264.8673024064376 226.8837297077236 246.45168595101427 225.60768993109258 225.44152554510515 218.78107499419997" stroke-opacity="1" stroke-linecap="round" stroke-miterlimit="10" stroke-dasharray=""/><path fill="#FFFFFF" stroke="rgb(0,0,0)" paint-order="fill stroke markers" d=" M 209.5433876250247 230.14836235417317 C 196.5583943850856 212.27605242128053 189.65406999385212 195.1560783662353 194.12214747707526 191.9098300562505 C 198.59022496029843 188.66358174626575 212.73873427258454 200.52034737543104 225.72372751252368 218.3926573083237 C 238.7087207524628 236.2649672412163 245.6130451436963 253.38494129626153 241.14496766047313 256.6311896062463 C 236.67689017724996 259.8774379162311 222.52838086496385 248.0206722870658 209.5433876250247 230.14836235417317" stroke-opacity="1" stroke-linecap="round" stroke-miterlimit="10" stroke-dasharray=""/></g></svg>